<?xml version="1.0" encoding="UTF-8"?>
<svg width="2458px" height="512px" viewBox="0 0 2458 512" version="1.1" xmlns="http://www.w3.org/2000/svg" xmlns:xlink="http://www.w3.org/1999/xlink">
    <title>worqchat_logo_dark</title>
    <g id="Page-1" stroke="none" stroke-width="1" fill="none" fill-rule="evenodd">
        <g id="logo" fill-rule="nonzero">
            <g id="worq-logo">
                <circle id="Oval" fill="#6366F1" cx="256" cy="256" r="256"></circle>
                <path d="M362.807947,368.807947 L244.122956,368.807947 C178.699407,368.807947 125.456954,315.561812 125.456954,250.12177 C125.456954,184.703089 178.699407,131.456954 244.124143,131.456954 C309.565494,131.456954 362.807947,184.703089 362.807947,250.12177 L362.807947,368.807947 Z" id="Fill-1" stroke="#FFFFFF" stroke-width="6" fill="#FFFFFF"></path>
                <!-- Chat bubble accent -->
                <circle id="chat-dot" fill="#10B981" cx="320" cy="200" r="12"></circle>
            </g>
            <path d="M650,199.331131 L715.5,199.331131 L748,300 L780.5,199.331131 L816,199.331131 L848.5,300 L881,199.331131 L946.5,199.331131 L881,409.938049 L832,409.938049 L799.5,309 L767,409.938049 L718,409.938049 L652.5,199.331131 Z
                     M980,307.013108 C980,322.869971 982.5,337.429236 987.5,350.691339 C992.5,363.953443 999.5,375.413458 1008.5,385.07173 C1017.5,394.730001 1028,402.22586 1040,407.559532 C1052,412.893204 1065.5,415.56 1080,415.56 C1094.5,415.56 1108,412.893204 1120,407.559532 C1132,402.22586 1142.5,394.730001 1151.5,385.07173 C1160.5,375.413458 1167.5,363.953443 1172.5,350.691339 C1177.5,337.429236 1180,322.869971 1180,307.013108 C1180,291.156245 1177.5,276.669056 1172.5,263.551105 C1167.5,250.433155 1160.5,239.117291 1151.5,229.603173 C1142.5,220.089055 1132,212.665272 1120,207.331599 C1108,201.997927 1094.5,199.331131 1080,199.331131 C1065.5,199.331131 1052,201.997927 1040,207.331599 C1028,212.665272 1017.5,220.089055 1008.5,229.603173 C999.5,239.117291 992.5,250.433155 987.5,263.551105 C982.5,276.669056 980,291.156245 980,307.013108 Z M1037.5,307.013108 C1037.5,297.210684 1039,287.84086 1042,278.903355 C1045,269.96585 1049.5,262.109613 1055.5,255.334408 C1061.5,248.559203 1068.5,243.153536 1076.5,239.117243 C1084.5,235.080951 1093.5,233.062835 1103.5,233.062835 C1113.5,233.062835 1122.5,235.080951 1130.5,239.117243 C1138.5,243.153536 1145.5,248.559203 1151.5,255.334408 C1157.5,262.109613 1162,269.96585 1165,278.903355 C1168,287.84086 1169.5,297.210684 1169.5,307.013108 C1169.5,316.815532 1168,326.185356 1165,335.122861 C1162,344.060365 1157.5,351.988678 1151.5,358.908036 C1145.5,365.827395 1138.5,371.305138 1130.5,375.34143 C1122.5,379.377723 1113.5,381.395839 1103.5,381.395839 C1093.5,381.395839 1084.5,379.377723 1076.5,375.34143 C1068.5,371.305138 1061.5,365.827395 1055.5,358.908036 C1049.5,351.988678 1045,344.060365 1042,335.122861 C1039,326.185356 1037.5,316.815532 1037.5,307.013108 Z
                     M1220,204.953082 L1285.5,204.953082 L1285.5,270 C1290,250 1300,235 1315,225 C1330,215 1348,210 1369,210 L1369,268 C1350,268 1335,273 1324,283 C1313,293 1307.5,308 1307.5,328 L1307.5,409.938049 L1247,409.938049 L1247,204.953082 L1220,204.953082 Z
                     M1420,307.013108 C1420,322.869971 1422.5,337.429236 1427.5,350.691339 C1432.5,363.953443 1439.5,375.413458 1448.5,385.07173 C1457.5,394.730001 1468,402.22586 1480,407.559532 C1492,412.893204 1505.5,415.56 1520,415.56 C1534.5,415.56 1548,412.893204 1560,407.559532 C1572,402.22586 1582.5,394.730001 1591.5,385.07173 C1600.5,375.413458 1607.5,363.953443 1612.5,350.691339 C1617.5,337.429236 1620,322.869971 1620,307.013108 C1620,307.013108 1617.5,276.669056 1612.5,263.551105 C1607.5,250.433155 1600.5,239.117291 1591.5,229.603173 C1582.5,220.089055 1572,212.665272 1560,207.331599 C1548,201.997927 1534.5,199.331131 1520,199.331131 C1505.5,199.331131 1492,201.997927 1480,207.331599 C1468,212.665272 1457.5,220.089055 1448.5,229.603173 C1439.5,239.117291 1432.5,250.433155 1427.5,263.551105 C1422.5,276.669056 1420,291.156245 1420,307.013108 Z M1477.5,307.013108 C1477.5,297.210684 1479,287.84086 1482,278.903355 C1485,269.96585 1489.5,262.109613 1495.5,255.334408 C1501.5,248.559203 1508.5,243.153536 1516.5,239.117243 C1524.5,235.080951 1533.5,233.062835 1543.5,233.062835 C1553.5,233.062835 1562.5,235.080951 1570.5,239.117243 C1578.5,243.153536 1585.5,248.559203 1591.5,255.334408 C1597.5,262.109613 1602,269.96585 1605,278.903355 C1608,287.84086 1609.5,297.210684 1609.5,307.013108 C1609.5,316.815532 1608,326.185356 1605,335.122861 C1602,344.060365 1597.5,351.988678 1591.5,358.908036 C1585.5,365.827395 1578.5,371.305138 1570.5,375.34143 C1562.5,379.377723 1553.5,381.395839 1543.5,381.395839 C1533.5,381.395839 1524.5,379.377723 1516.5,375.34143 C1508.5,371.305138 1501.5,365.827395 1495.5,358.908036 C1489.5,351.988678 1485,344.060365 1482,335.122861 C1479,326.185356 1477.5,316.815532 1477.5,307.013108 Z
                     M1700,199.331131 C1720,199.331131 1738,203 1754,210.5 C1770,218 1783,228.5 1793,242 C1803,255.5 1810,271.5 1814,290 C1818,308.5 1818,328.5 1816,350 L1730,350 C1732,368 1738,382 1748,392 C1758,402 1772,407 1790,407 C1804,407 1816,404 1826,398 C1836,392 1844,384 1850,374 L1905,395 C1895,413 1882,427 1866,437 C1850,447 1830,452 1806,452 C1786,452 1768,448 1752,440 C1736,432 1723,421 1713,407 C1703,393 1696,377 1692,359 C1688,341 1688,322 1690,302 C1692,282 1697,263 1705,245 C1713,227 1724,211 1738,197 C1752,183 1768,172 1786,164 C1804,156 1824,152 1846,152 C1866,152 1884,156 1900,164 C1916,172 1929,183 1939,197 C1949,211 1956,227 1960,245 C1964,263 1965,282 1963,302 L1700,302 Z M1760,265 C1758,250 1753,238 1745,229 C1737,220 1726,215.5 1712,215.5 C1698,215.5 1687,220 1679,229 C1671,238 1666,250 1664,265 L1760,265 Z
                     M2020,204.953082 L2075,204.953082 L2075,238.252328 L2020,238.252328 L2020,345.069389 C2020,357.466573 2022,366.331868 2026,371.66554 C2030,376.999212 2036,379.666008 2044,379.666008 C2047,379.666008 2050,379.233554 2053,378.368635 C2056,377.503715 2059,376.206355 2062,374.476515 L2063,407.775761 C2059,409.5056 2054,410.875036 2048,411.884109 C2042,412.893182 2036,413.397711 2030,413.397711 C2015,413.397711 2003,408.064119 1994,397.396775 C1985,386.729431 1981,370.728655 1981,349.393966 L1981,238.252328 L1951,238.252328 L1951,204.953082 L1981,204.953082 L1981,146.13883 L2020,146.13883 L2020,204.953082 Z" id="worqchat" stroke="#EEEEEE" stroke-width="8" fill="#EDEDED"></path>
        </g>
    </g>
</svg>